{"title":"Rihanna ft Drake - Whats My Name [KingPinMKVideos] [HQ X264 MKV]","uid":5977268,"size":106833286,"categoryP":"video","categoryS":"music_videos","magnet":"?xt=urn:btih:8d0fea7715c24c77a9012627ab893278058c0fe8&amp;dn=Rihanna+ft+Drake+-+Whats+My+Name+%5BKingPinMKVideos%5D+%5BHQ+X264+MKV%5D&amp;tr=udp%3A%2F%2Ftracker.openbittorrent.com%3A80&amp;tr=udp%3A%2F%2Fopen.demonii.com%3A1337&amp;tr=udp%3A%2F%2Ftracker.coppersurfer.tk%3A6969&amp;tr=udp%3A%2F%2Fexodus.desync.com%3A6969","seeders":1,"leechers":0,"uploader":"KingPinMan","files":-1,"time":1290475535,"description":"\n\n[img]http://img26.imageshack.us/img26/6377/rihannawhatmyname2.png[/img]\n\n[code]General\nComplete name                    : Rihanna ft Drake - Whats My Name [KingPinMKVideos].mkv\nFormat                           : Matroska\nFile size                        : 102 MiB\nDuration                         : 4mn 27s\nOverall bit rate                 : 3 198 Kbps\nWriting application              : HandBrake 0.9.4\n\nVideo\nID                               : 1\nFormat                           : AVC\nFormat/Info                      : Advanced Video Codec\nFormat profile                   : &lt;a class=&quot;__cf_email__&quot; href=&quot;/cdn-cgi/l/email-protection&quot; data-cfemail=&quot;4b03222c230b0778657b&quot;&gt;[email&amp;#160;protected]&lt;/a&gt;&lt;script cf-hash='f9e31' type=&quot;text/javascript&quot;&gt;\n/* &lt;![CDATA[ */!function(){try{var t=&quot;currentScript&quot;in document?document.currentScript:function(){for(var t=document.getElementsByTagName(&quot;script&quot;),e=t.length;e--;)if(t[e].getAttribute(&quot;cf-hash&quot;))return t[e]}();if(t&amp;&amp;t.previousSibling){var e,r,n,i,c=t.previousSibling,a=c.getAttribute(&quot;data-cfemail&quot;);if(a){for(e=&quot;&quot;,r=parseInt(a.substr(0,2),16),n=2;a.length-n;n+=2)i=parseInt(a.substr(n,2),16)^r,e+=String.fromCharCode(i);e=document.createTextNode(e),c.parentNode.replaceChild(e,c)}}}catch(u){}}();/* ]]&gt; */&lt;/script&gt;\nFormat settings, CABAC           : No\nFormat settings, ReFrames        : 2 frames\nMuxing mode                      : Container profile=&lt;a class=&quot;__cf_email__&quot; href=&quot;/cdn-cgi/l/email-protection&quot; data-cfemail=&quot;eebb808580819980aeddc0de&quot;&gt;[email&amp;#160;protected]&lt;/a&gt;&lt;script cf-hash='f9e31' type=&quot;text/javascript&quot;&gt;\n/* &lt;![CDATA[ */!function(){try{var t=&quot;currentScript&quot;in document?document.currentScript:function(){for(var t=document.getElementsByTagName(&quot;script&quot;),e=t.length;e--;)if(t[e].getAttribute(&quot;cf-hash&quot;))return t[e]}();if(t&amp;&amp;t.previousSibling){var e,r,n,i,c=t.previousSibling,a=c.getAttribute(&quot;data-cfemail&quot;);if(a){for(e=&quot;&quot;,r=parseInt(a.substr(0,2),16),n=2;a.length-n;n+=2)i=parseInt(a.substr(n,2),16)^r,e+=String.fromCharCode(i);e=document.createTextNode(e),c.parentNode.replaceChild(e,c)}}}catch(u){}}();/* ]]&gt; */&lt;/script&gt;\nCodec ID                         : V_MPEG4/ISO/AVC\nDuration                         : 4mn 27s\nBit rate                         : 2 942 Kbps\nNominal bit rate                 : 3 000 Kbps\nWidth                            : 526 pixels\nHeight                           : 296 pixels\nDisplay aspect ratio             : 16:9\nFrame rate                       : 29.970 fps\nResolution                       : 8 bits\nColorimetry                      : 4:2:0\nScan type                        : Progressive\nBits/(Pixel*Frame)               : 0.630\nStream size                      : 93.6 MiB (92%)\nWriting library                  : x264 core 79\n\nAudio\nID                               : 2\nFormat                           : AC-3\nFormat/Info                      : Audio Coding 3\nCodec ID                         : A_AC3\nDuration                         : 4mn 27s\nBit rate mode                    : Constant\nBit rate                         : 192 Kbps\nChannel(s)                       : 2 channels\nChannel positions                : L R\nSampling rate                    : 48.0 KHz\nStream size                      : 6.12 MiB (6%)[/code]","torrent":{"xt":"urn:btih:8d0fea7715c24c77a9012627ab893278058c0fe8","amp;dn":"Rihanna+ft+Drake+-+Whats+My+Name+%5BKingPinMKVideos%5D+%5BHQ+X264+MKV%5D","amp;tr":["udp%3A%2F%2Ftracker.openbittorrent.com%3A80","udp%3A%2F%2Fopen.demonii.com%3A1337","udp%3A%2F%2Ftracker.coppersurfer.tk%3A6969","udp%3A%2F%2Fexodus.desync.com%3A6969"],"infoHash":"8d0fea7715c24c77a9012627ab893278058c0fe8","infoHashBuffer":{"type":"Buffer","data":[141,15,234,119,21,194,76,119,169,1,38,39,171,137,50,120,5,140,15,232]},"announce":[],"urlList":[]}}